#!OML:ASF F:\VICON\USERDATA\Patient Classification 1\PLAYGROUND\JustinFriday\JustinFriday.ASF
:FULLY-SPECIFIED
:DEGREES
847
root -4.22481 17.3818 31.4757 -179.583 -172.697 178.15
lowerback 12.5595 3.01563 4.28925
upperback 1.66408 4.68437 2.02239
thorax -5.10514 2.23474 -1.06354
lowerneck -3.1889 6.83953 -1.36001
upperneck 16.8552 10.1285 -4.17258
head 5.7771 4.57341 -0.478621
rclavicle 1.65985e-014 3.18055e-015
rhumerus -33.906 -38.7798 -57.3594
rradius 37.5031
rwrist 194.727
rhand -30.0092 27.6505
rfingers 7.12502
rthumb -3.32631 -2.30332
lclavicle 1.65985e-014 3.18055e-015
lhumerus -9.91146 50.4961 38.0484
lradius 94.9607
lwrist 48.6846
lhand -35.5049 15.0838
lfingers 7.12502
lthumb -8.63206 44.8874
rfemur -1.69377 0.365606 23.6283
rtibia 60.1896
rfoot 13.539 -14.2405
rtoes 11.6868
lfemur -25.6442 13.6803 -19.4246
ltibia 31.9422
lfoot -5.67439 2.08026
ltoes -16.7502
848
root -4.1799 17.4303 31.8101 -180.821 -173.494 181.056
lowerback 8.36312 3.364 4.09668
upperback 4.95343 4.73532 0.265333
thorax 0.771305 2.45277 -2.3576
lowerneck -5.27524 6.34715 -1.27273
upperneck 15.3188 9.41508 -4.16672
head 5.64236 4.23763 -0.483937
rclavicle 6.75868e-014 -1.43125e-014
rhumerus -31.629 -44.1875 -58.3405
rradius 36.3907
rwrist 196.637
rhand -30.0138 28.1169
rfingers 7.12502
rthumb -3.33075 -1.83682
lclavicle 6.75868e-014 -1.43125e-014
lhumerus -2.92294 52.7618 43.7644
lradius 95.3913
lwrist 48.2254
lhand -34.4173 16.7874
lfingers 7.12502
lthumb -7.58238 46.6315
rfemur -1.35356 -0.81237 19.5102
rtibia 62.0773
rfoot 13.7637 -12.7724
rtoes 7.57205
lfemur -22.8423 13.7477 -22.7316
ltibia 31.4565
lfoot -7.24512 1.60312
ltoes -17.2476
849
root -4.17567 17.4453 32.022 -180.986 -174.299 181.693
lowerback 11.6393 3.09052 2.14804
upperback 2.432 4.38789 0.900282
thorax -3.87497 2.1494 -0.911406
lowerneck -2.8794 6.67239 -1.67141
upperneck 16.9002 9.93924 -4.26006
head 5.72556 4.46405 -0.479529
rclavicle 2.5842e-015 7.15625e-015
rhumerus -36.4848 -41.0906 -54.0781
rradius 35.6735
rwrist 196.345
rhand -29.8159 28.4628
rfingers 7.12502
rthumb -3.13965 -1.49379
lclavicle 2.5842e-015 7.15625e-015
lhumerus -10.2011 51.1017 38.7912
lradius 96.5715
lwrist 48.6641
lhand -34.1835 17.9452
lfingers 7.12502
lthumb -7.35673 47.7973
rfemur -2.92283 -1.35973 18.783
rtibia 64.3635
rfoot 14.2684 -12.4882
rtoes 12.6846
lfemur -21.8669 13.246 -23.4366
ltibia 31.248
lfoot -7.75915 1.46589
ltoes -18.1571
850
root -4.21976 17.4308 32.1056 -180.188 -175.128 179.488
lowerback 12.5246 2.99306 3.88945
upperback 1.96636 4.56313 1.58819
thorax -4.76698 2.19204 -1.2623
lowerneck -2.73958 6.5401 -2.05196
upperneck 16.8699 9.76385 -4.12984
head 5.66536 4.36984 -0.396349
rclavicle -1.66979e-014 1.51076e-014
rhumerus -37.8197 -42.5373 -52.251
rradius 34.6727
rwrist 197.534
rhand -29.8218 28.8232
rfingers 7.12502
rthumb -3.14533 -1.13336
lclavicle -1.66979e-014 1.51076e-014
lhumerus -10.4363 51.361 39.1931
lradius 97.4629
lwrist 48.7914
lhand -34.576 18.9701
lfingers 7.12502
lthumb -7.73554 48.8086
rfemur -6.4719 -0.776441 22.4889
rtibia 67.1376
rfoot 13.2563 -14.5136
rtoes 16.3756
lfemur -22.6707 12.4724 -20.9041
ltibia 31.3009
lfoot -7.26039 1.25674
ltoes -16.7059
851
root -4.20081 17.4526 32.3465 -180.102 -176.126 179.195
lowerback 11.7789 2.83301 4.65052
upperback 2.13569 4.404 1.65922
thorax -4.13259 2.1222 -1.53496
lowerneck -2.96954 6.52199 -2.39036
upperneck 17.2732 9.78502 -3.98461
head 5.80922 4.35331 -0.280768
rclavicle -3.88624e-014 -1.19271e-014
rhumerus -38.9739 -43.7283 -50.5377
rradius 33.7755
rwrist 199.177
rhand -29.8609 29.2762
rfingers 7.12502
rthumb -3.1831 -0.679828
lclavicle -3.88624e-014 -1.19271e-014
lhumerus -11.1377 51.6636 39.1687
lradius 98.34
lwrist 49.321
lhand -35.4715 19.3595
lfingers 7.12502
lthumb -8.59978 49.1644
rfemur -8.05573 -1.34316 22.7946
rtibia 69.2717
rfoot 10.1802 -14.5221
rtoes 16.9494
lfemur -21.9306 11.779 -20.6665
ltibia 31.5315
lfoot -8.13553 1.16905
ltoes -15.9029
852
root -4.19503 17.4559 32.5565 -180.606 -177.335 180.749
lowerback 9.20962 2.92848 4.40036
upperback 4.4402 4.24488 0.780654
thorax -0.278589 2.1772 -2.03871
lowerneck -4.59539 6.14356 -2.63907
upperneck 16.0987 9.27698 -3.93075
head 5.69847 4.10262 -0.21659
rclavicle -2.18663e-015 -1.51076e-014
rhumerus -37.6566 -48.2816 -50.6491
rradius 32.7455
rwrist 201.309
rhand -29.5011 30.1649
rfingers 7.12502
rthumb -2.83568 0.203971
lclavicle -2.18663e-015 -1.51076e-014
lhumerus -6.41293 53.6504 43.2989
lradius 98.6495
lwrist 49.3335
lhand -35.9955 19.1419
lfingers 7.12502
lthumb -9.10547 48.9253
rfemur -9.34615 -2.47823 20.8811
rtibia 71.3829
rfoot 9.14508 -12.7646
rtoes 11.8438
lfemur -20.7802 10.9431 -22.3564
ltibia 31.7474
lfoot -9.05189 1.01199
ltoes -16.7316
853
root -4.18226 17.4588 32.7691 -180.776 -178.496 180.742
lowerback 7.86187 2.88096 5.25418
upperback 5.52111 4.13221 0.62117
thorax 1.65999 2.20702 -2.54053
lowerneck -4.87712 5.8809 -2.83803
upperneck 15.1661 8.93055 -4.18059
head 5.45564 3.93265 -0.28994
rclavicle -6.08281e-014 6.36111e-015
rhumerus -38.14 -51.2251 -49.3217
rradius 31.9406
rwrist 203.239
rhand -29.212 30.797
rfingers 7.12502
rthumb -2.55648 0.832573
lclavicle -6.08281e-014 6.36111e-015
lhumerus -4.41795 54.5614 45.4835
lradius 99.0559
lwrist 49.6788
lhand -36.4378 19.0748
lfingers 7.12502
lthumb -9.53225 48.8392
rfemur -10.7443 -2.77793 21.0879
rtibia 72.9795
rfoot 7.73343 -12.1433
rtoes 12.1001
lfemur -19.8893 10.3795 -22.3841
ltibia 31.8868
lfoot -9.79891 0.669682
ltoes -16.8042
854
root -4.17605 17.4608 32.9687 -180.969 -179.609 180.644
lowerback 8.10531 2.77519 5.51374
upperback 5.51825 4.02395 0.798887
thorax 1.52082 2.15402 -2.51037
lowerneck -4.61227 5.79614 -3.00988
upperneck 15.2369 8.8703 -4.4546
head 5.43901 3.88003 -0.358045
rclavicle -1.15295e-014 3.26007e-014
rhumerus -40.4587 -52.6437 -46.3516
rradius 31.2502
rwrist 205.206
rhand -29.3556 30.0823
rfingers 7.12502
rthumb -2.69514 0.119586
lclavicle -1.15295e-014 3.26007e-014
lhumerus -5.04769 54.6014 45.7208
lradius 99.5918
lwrist 50.2337
lhand -37.9034 18.7871
lfingers 7.12502
lthumb -10.9461 48.4817
rfemur -12.2915 -2.97667 21.4188
rtibia 74.518
rfoot 6.21121 -11.9512
rtoes 12.1796
lfemur -19.1141 9.81048 -22.2441
ltibia 32.1804
lfoot -10.5254 0.344557
ltoes -15.901
855
root -4.19471 17.449 33.1135 -180.921 -180.482 179.729
lowerback 10.0344 2.6235 5.85867
upperback 4.38868 4.03206 1.40749
thorax -0.735114 2.0723 -2.23324
lowerneck -3.89259 5.88117 -3.20515
upperneck 16.0863 9.05837 -4.60701
head 5.58432 3.93704 -0.372987
rclavicle -9.74045e-015 -3.4191e-014
rhumerus -43.5086 -51.971 -42.9787
rradius 30.6175
rwrist 206.309
rhand -29.342 29.559
rfingers 7.12502
rthumb -2.68196 -0.403857
lclavicle -9.74045e-015 -3.4191e-014
lhumerus -7.97435 54.0932 44.0506
lradius 100.12
lwrist 50.5804
lhand -39.6165 17.6094
lfingers 7.12502
lthumb -12.5981 47.2096
rfemur -14.6891 -2.62875 23.0524
rtibia 76.0054
rfoot 5.48474 -12.093
rtoes 12.868
lfemur -19.1496 9.36316 -21.0982
ltibia 32.7988
lfoot -11.129 -0.163898
ltoes -14.8206
856
root -4.22037 17.4422 33.2589 -180.716 -181.502 179.186
lowerback 13.2257 2.32089 5.32205
upperback 2.12304 3.93876 2.09418
thorax -4.95625 1.86218 -1.46547
lowerneck -2.07066 6.15745 -3.36949
upperneck 17.255 9.46528 -4.74102
head 5.64605 4.11542 -0.410817
rclavicle -3.37934e-014 1.90833e-014
rhumerus -47.1088 -48.9283 -39.626
rradius 30.2686
rwrist 206.616
rhand -29.172 29.9164
rfingers 7.12502
rthumb -2.5178 -0.0485184
lclavicle -3.37934e-014 1.90833e-014
lhumerus -14.0255 52.6789 39.6602
lradius 100.745
lwrist 51.5488
lhand -33.8312 24.168
lfingers 7.12502
lthumb -7.01663 54.0317
rfemur -17.2852 -2.34698 24.219
rtibia 77.2245
rfoot 4.95144 -12.1588
rtoes 12.4916
lfemur -19.1715 8.76612 -20.3945
ltibia 33.0217
lfoot -11.2947 -0.663418
ltoes -13.6992
857
root -4.23234 17.4361 33.4396 -180.75 -182.349 179.347
lowerback 12.8788 2.36879 5.31467
upperback 2.57086 3.95139 2.05337
thorax -4.28907 1.89508 -1.47447
lowerneck -2.33577 5.99724 -3.70501
upperneck 16.9812 9.25321 -4.64341
head 5.5844 4.00436 -0.334392
rclavicle -5.76476e-014 -1.59028e-014
rhumerus -48.558 -50.5938 -37.6414
rradius 29.8045
rwrist 208.389
rhand -29.0552 29.8402
rfingers 7.12502
rthumb -2.405 -0.125958
lclavicle -5.76476e-014 -1.59028e-014
lhumerus -13.6443 53.3149 40.38
lradius 100.894
lwrist 52.0995
lhand -37.5152 19.3243
lfingers 7.12502
lthumb -10.5717 49.0384
rfemur -19.2708 -1.96976 24.3454
rtibia 78.067
rfoot 4.19606 -12.1956
rtoes 13.1451
lfemur -18.4525 8.32075 -20.463
ltibia 32.8071
lfoot -11.5435 -1.00759
ltoes -13.5561
858
root -4.19139 17.4571 33.7181 -180.984 -183.574 181.226
lowerback 11.1063 2.38921 4.17969
upperback 3.5999 3.66614 1.55036
thorax -2.29661 1.82723 -1.20292
lowerneck -2.72117 5.79187 -4.14609
upperneck 16.7803 9.00755 -4.56594
head 5.5642 3.86466 -0.24392
rclavicle 9.14409e-015 -7.95139e-015
rhumerus -49.7197 -52.2334 -35.7604
rradius 29.3224
rwrist 210.036
rhand -28.8408 29.7008
rfingers 7.12502
rthumb -2.198 -0.267622
lclavicle 9.14409e-015 -7.95139e-015
lhumerus -12.8828 54.2434 41.5459
lradius 100.724
lwrist 51.0448
lhand -35.712 21.0601
lfingers 7.12502
lthumb -8.83185 50.8553
rfemur -19.7337 -2.441 21.8701
rtibia 78.3029
rfoot 2.83224 -11.327
rtoes 12.0551
lfemur -16.3627 7.80895 -22.6071
ltibia 31.8535
lfoot -12.6089 -1.31284
ltoes -15.5601
859
root -4.15285 17.4747 33.9802 -181.287 -184.769 182.968
lowerback 12.1255 2.29822 2.80008
upperback 2.77341 3.44773 1.17894
thorax -3.78909 1.68664 -0.865226
lowerneck -1.37269 5.80105 -4.16873
upperneck 17.3233 8.99289 -4.62484
head 5.50815 3.86336 -0.297469
rclavicle 1.05356e-014 -7.95139e-016
rhumerus -52.5767 -50.444 -33.1859
rradius 29.1361
rwrist 210.458
rhand -28.601 29.934
rfingers 7.12502
rthumb -1.96639 -0.0366409
lclavicle 1.05356e-014 -7.95139e-016
lhumerus -16.1898 53.477 39.0842
lradius 100.458
lwrist 49.6381
lhand -32.8077 21.9634
lfingers 7.12502
lthumb -6.02859 51.8576
rfemur -20.1714 -2.74578 19.5824
rtibia 78.3648
rfoot 1.52458 -10.6899
rtoes 10.1854
lfemur -14.0593 7.43978 -24.5731
ltibia 30.4383
lfoot -13.1854 -1.7605
ltoes -16.8405
